<?xml version="1.0" standalone="no"?>
<!DOCTYPE svg PUBLIC "-//W3C//DTD SVG 20010904//EN"
 "http://www.w3.org/TR/2001/REC-SVG-20010904/DTD/svg10.dtd">
<svg version="1.0" xmlns="http://www.w3.org/2000/svg"
 width="1181.000000pt" height="1079.000000pt" viewBox="0 0 1181.000000 1079.000000"
 preserveAspectRatio="xMidYMid meet">

<g transform="translate(0.000000,1079.000000) scale(0.100000,-0.100000)"
fill="#000000" stroke="none">
<path d="M7350 10131 c-30 -3 -60 -10 -67 -14 -11 -7 -157 -15 -363 -21 -82
-2 -107 -7 -175 -35 -44 -18 -84 -37 -90 -41 -5 -4 -35 -6 -65 -5 -49 2 -68
-4 -166 -51 -61 -30 -118 -54 -126 -54 -9 0 -27 -9 -42 -21 -28 -22 -143 -61
-191 -64 -50 -3 -158 -59 -177 -92 -9 -16 -37 -39 -63 -52 -29 -15 -50 -33
-56 -50 -19 -51 -44 -91 -57 -91 -30 0 -179 -74 -220 -108 -98 -83 -182 -173
-182 -194 0 -17 -36 -56 -88 -96 -30 -23 -36 -24 -73 -13 -21 7 -54 24 -72 40
-17 15 -48 33 -67 41 -90 35 -159 77 -205 125 -27 29 -57 54 -66 56 -9 2 -32
24 -50 48 -19 25 -52 54 -74 65 -22 12 -41 27 -41 34 -1 6 -2 16 -3 20 -2 13
-110 58 -196 82 -44 12 -100 28 -124 36 -25 8 -58 14 -74 14 -16 0 -53 7 -83
16 -56 16 -69 16 -284 -5 -69 -7 -117 -7 -141 -1 -20 6 -56 7 -80 4 -33 -5
-67 1 -133 21 -62 19 -112 27 -170 28 -71 1 -88 -2 -134 -27 -29 -16 -58 -36
-65 -46 -7 -10 -31 -21 -52 -25 -22 -4 -55 -14 -73 -22 -19 -8 -59 -19 -90
-23 -32 -5 -83 -18 -114 -29 -32 -12 -67 -21 -80 -21 -12 0 -38 -11 -58 -25
-20 -14 -67 -32 -105 -42 -39 -9 -81 -25 -94 -35 -13 -10 -29 -18 -35 -18 -7
0 -25 -13 -40 -29 -16 -16 -52 -39 -82 -51 -29 -12 -55 -28 -58 -36 -6 -15
-87 -54 -112 -54 -8 0 -32 -12 -54 -26 -29 -19 -46 -24 -67 -20 -22 5 -39 0
-67 -19 -20 -14 -52 -31 -70 -39 -18 -7 -55 -32 -82 -55 -65 -56 -206 -147
-240 -155 -38 -10 -122 -82 -139 -120 -28 -59 -54 -100 -85 -127 -16 -15 -30
-35 -30 -43 0 -8 -13 -30 -29 -48 -15 -18 -33 -43 -40 -55 -6 -13 -18 -23 -25
-23 -18 0 -48 -36 -86 -105 -19 -33 -44 -74 -57 -91 -13 -17 -23 -38 -23 -47
0 -8 -11 -28 -24 -44 -13 -16 -34 -62 -46 -103 -18 -62 -31 -84 -72 -126 -43
-45 -49 -54 -39 -72 13 -25 14 -63 2 -94 -24 -62 -45 -151 -54 -223 -12 -102
-15 -346 -4 -405 5 -25 10 -65 11 -90 2 -25 8 -67 15 -94 6 -27 12 -72 11
-100 -1 -114 30 -276 67 -349 17 -34 25 -76 28 -143 1 -35 9 -62 24 -83 13
-17 27 -48 33 -69 5 -20 18 -46 27 -57 21 -23 49 -100 60 -164 5 -24 15 -48
24 -52 8 -5 18 -24 22 -42 8 -38 68 -159 101 -204 13 -17 24 -36 24 -42 0 -6
10 -27 22 -48 60 -106 98 -176 104 -196 14 -45 44 -95 74 -123 17 -16 37 -40
45 -54 17 -34 102 -118 149 -150 20 -14 43 -39 52 -56 8 -17 44 -55 79 -84 35
-29 66 -59 69 -67 3 -7 25 -22 48 -33 55 -24 75 -41 79 -64 4 -19 64 -65 124
-96 17 -9 39 -32 50 -53 12 -22 27 -37 38 -37 11 0 31 -13 45 -28 15 -16 51
-36 83 -45 38 -12 63 -27 78 -47 12 -17 30 -30 40 -30 18 0 131 -105 131 -122
0 -5 17 -17 38 -26 50 -24 117 -67 152 -100 16 -15 45 -40 66 -57 20 -16 52
-44 69 -61 18 -18 43 -35 56 -39 13 -4 37 -18 52 -31 16 -13 33 -24 38 -24 5
0 38 -23 73 -50 35 -28 79 -56 98 -62 18 -6 45 -19 60 -30 14 -10 38 -18 53
-18 31 0 85 -51 85 -80 0 -13 11 -19 49 -24 27 -3 54 -12 60 -20 6 -7 30 -21
53 -31 24 -11 64 -34 89 -52 26 -18 50 -33 53 -33 4 0 19 -13 33 -30 13 -16
33 -30 42 -30 10 0 34 -10 52 -22 73 -49 120 -68 294 -118 99 -28 192 -58 208
-66 15 -8 41 -21 58 -30 29 -15 122 -45 144 -46 6 0 17 3 26 6 10 4 32 -6 60
-29 24 -19 52 -35 61 -35 10 0 36 -18 58 -39 32 -30 60 -46 126 -66 120 -38
191 -72 216 -106 21 -28 70 -49 116 -49 13 0 57 -16 98 -35 41 -19 78 -35 82
-35 4 0 30 -12 57 -25 28 -14 66 -25 85 -25 19 -1 53 -11 75 -24 22 -13 72
-40 111 -60 64 -34 95 -45 219 -78 22 -6 52 -21 67 -33 14 -12 63 -32 108 -44
44 -12 95 -31 113 -41 18 -10 61 -24 96 -29 45 -7 75 -19 100 -39 20 -16 48
-32 64 -36 15 -3 35 -14 45 -24 34 -33 68 -42 124 -32 28 6 59 16 67 23 9 8
30 19 48 26 18 7 35 21 38 31 3 10 12 23 19 29 18 15 64 -2 73 -26 4 -10 14
-29 22 -42 9 -14 21 -41 26 -60 9 -30 18 -39 53 -51 32 -11 44 -21 52 -46 6
-17 20 -40 30 -49 11 -10 20 -23 20 -29 0 -7 16 -43 35 -81 20 -39 43 -83 51
-100 8 -16 19 -37 23 -45 4 -8 31 -33 59 -55 28 -22 53 -48 57 -57 3 -9 25
-31 48 -48 72 -53 147 -124 147 -141 0 -18 50 -98 73 -118 9 -7 17 -23 17 -35
0 -27 20 -57 95 -140 64 -72 124 -168 125 -201 0 -25 49 -118 106 -206 46 -70
74 -128 74 -154 0 -22 97 -222 126 -260 12 -16 32 -56 44 -87 12 -32 35 -71
52 -87 17 -16 35 -34 42 -40 83 -87 77 -84 210 -109 49 -10 67 -9 110 5 28 9
65 26 81 39 17 12 39 24 50 26 12 2 24 16 30 34 6 17 27 47 48 66 20 19 37 41
37 48 0 21 90 133 129 161 41 29 84 44 138 47 12 1 35 13 51 26 25 22 35 24
85 19 31 -3 57 -9 57 -13 0 -4 19 -13 43 -20 23 -8 58 -22 77 -32 19 -9 64
-25 100 -34 35 -9 80 -25 99 -35 20 -11 41 -19 47 -19 34 0 252 -118 262 -142
2 -4 14 -8 28 -8 18 0 29 -10 44 -40 13 -25 32 -45 53 -54 17 -7 56 -32 86
-54 30 -23 59 -38 65 -35 73 41 139 92 155 118 12 21 29 34 50 38 17 4 31 13
31 20 0 8 8 25 18 38 31 40 34 83 9 115 -41 52 -53 93 -47 153 4 31 6 126 5
211 -1 121 -5 162 -18 186 -20 39 -21 167 -1 239 11 42 11 57 0 88 -7 21 -18
43 -24 49 -17 17 -15 64 3 82 11 11 15 37 15 99 0 63 4 88 15 97 8 7 15 21 15
31 0 24 -18 102 -36 154 -8 22 -13 56 -12 75 1 25 -16 68 -61 152 -62 117 -72
160 -40 166 9 2 29 -8 44 -22 29 -27 89 -41 135 -31 20 4 67 43 140 115 61 59
125 115 143 123 42 20 97 75 97 97 0 20 22 41 72 66 37 19 128 116 128 136 0
20 54 133 78 162 21 27 23 36 18 90 -5 41 -2 76 7 108 8 26 13 49 11 51 -3 2
4 23 15 46 15 35 17 50 8 84 -5 23 -14 47 -18 52 -8 11 -5 130 6 188 7 33 -8
99 -27 122 -4 5 -8 17 -8 27 0 10 -9 27 -20 38 -22 22 -65 153 -57 174 3 8 -1
22 -8 33 -8 10 -15 32 -15 48 0 47 -19 103 -51 155 -16 26 -32 62 -35 81 -4
19 -13 41 -20 50 -8 9 -27 39 -42 67 -54 102 -106 188 -137 227 -18 22 -37 50
-44 63 -6 12 -18 22 -25 22 -8 0 -35 32 -62 70 -26 39 -53 70 -60 70 -8 0 -36
20 -64 45 -28 25 -57 45 -65 45 -8 0 -31 12 -52 26 -21 14 -57 30 -80 37 -29
7 -66 33 -118 79 -72 65 -139 108 -167 108 -7 0 -30 9 -51 20 -20 11 -65 24
-100 29 -73 11 -124 26 -142 41 -7 6 -60 13 -116 16 -57 3 -138 15 -179 27
-41 11 -96 20 -122 18 -25 -1 -49 3 -53 9 -14 22 7 89 40 128 19 21 39 60 46
85 6 26 17 52 25 58 8 6 14 16 14 21 0 14 65 75 87 82 19 6 69 61 124 136 14
19 36 73 48 120 13 47 38 114 56 150 65 126 112 236 134 310 13 41 29 85 37
98 22 34 93 272 101 337 2 17 7 82 12 145 5 63 14 128 20 143 15 38 14 113 -1
140 -8 13 -16 85 -20 172 -4 83 -12 211 -18 285 -6 74 -14 198 -18 275 -4 77
-12 149 -19 161 -6 11 -21 54 -32 95 -33 121 -89 273 -121 327 -14 23 -23 57
-24 87 -1 31 -12 69 -28 100 -29 56 -43 108 -39 143 2 16 -12 38 -48 73 -28
28 -62 72 -75 97 -13 26 -33 56 -45 66 -12 11 -21 25 -21 32 0 7 -18 28 -41
46 -23 18 -50 50 -60 71 -11 20 -23 37 -27 37 -10 0 -117 129 -154 185 -27 41
-42 57 -168 174 -53 49 -88 73 -120 82 -25 7 -61 22 -80 34 -19 11 -55 30 -80
41 -25 12 -67 32 -95 45 -40 19 -64 23 -120 21 -38 -1 -90 5 -115 12 -143 44
-164 48 -211 44 -27 -3 -72 1 -100 8 -34 9 -58 10 -75 3 -18 -6 -40 -6 -67 2
-23 6 -67 9 -97 5 -44 -4 -63 -1 -85 13 -47 28 -82 34 -195 36 -58 0 -112 3
-120 6 -8 3 -40 3 -70 0z m52 -251 c26 -5 69 -7 97 -3 30 3 62 1 78 -6 16 -6
44 -12 63 -12 34 -1 88 -9 305 -45 55 -9 143 -18 195 -21 52 -3 103 -9 112
-14 9 -5 28 -9 42 -9 15 0 59 -9 99 -21 87 -25 123 -34 204 -48 41 -8 80 -24
120 -50 32 -21 71 -41 87 -45 16 -4 41 -21 55 -38 14 -16 45 -51 69 -77 23
-27 42 -52 42 -57 0 -5 12 -20 25 -33 14 -13 25 -29 25 -35 0 -7 10 -21 21
-32 12 -10 32 -36 45 -56 14 -21 30 -38 37 -38 25 0 89 -51 83 -67 -8 -20 11
-43 34 -43 12 0 20 -11 24 -35 4 -19 15 -40 24 -47 21 -15 102 -173 102 -198
0 -10 9 -39 21 -65 15 -34 19 -58 15 -86 -4 -22 -2 -40 5 -44 23 -15 30 -58
18 -110 -10 -45 -9 -56 8 -91 11 -21 23 -57 27 -79 8 -44 26 -101 49 -155 35
-84 51 -155 68 -315 27 -255 46 -364 73 -427 11 -25 16 -67 16 -125 0 -58 3
-83 10 -73 16 26 23 2 9 -32 -8 -18 -12 -39 -11 -47 2 -7 -6 -20 -17 -28 -18
-12 -21 -25 -21 -80 0 -70 -23 -174 -46 -210 -8 -12 -14 -30 -14 -39 0 -21
-66 -139 -106 -189 -35 -44 -84 -146 -84 -177 0 -10 -9 -38 -19 -61 -10 -23
-22 -75 -26 -116 -6 -63 -12 -78 -39 -110 -18 -20 -38 -57 -45 -82 -7 -26 -28
-68 -47 -95 -19 -26 -34 -52 -34 -57 0 -23 -45 -97 -62 -103 -28 -9 -50 -48
-43 -77 9 -34 -18 -73 -61 -87 -19 -6 -34 -17 -34 -24 0 -20 -56 -87 -94 -112
-23 -16 -46 -49 -75 -109 -48 -99 -60 -107 -166 -110 -38 -2 -97 -10 -130 -19
-33 -9 -76 -21 -95 -26 -19 -5 -42 -18 -50 -28 -11 -13 -34 -21 -75 -24 -33
-4 -73 -13 -90 -22 -16 -9 -46 -19 -65 -22 -65 -13 -200 -104 -222 -152 -8
-17 -23 -28 -38 -30 -14 -2 -47 -25 -75 -52 -27 -26 -60 -51 -72 -55 -12 -3
-31 -18 -42 -33 -10 -15 -35 -45 -55 -67 -20 -21 -36 -42 -36 -46 0 -4 -8 -10
-18 -13 -24 -8 -142 -122 -142 -138 -1 -24 -48 -110 -69 -124 -12 -9 -28 -42
-40 -79 -12 -42 -33 -82 -59 -113 -23 -27 -44 -61 -48 -78 -3 -16 -15 -43 -25
-59 -16 -27 -37 -119 -58 -250 -5 -27 -19 -72 -31 -100 -27 -57 -36 -165 -30
-355 1 -41 7 -81 13 -88 14 -18 -6 -36 -31 -28 -11 4 -36 18 -56 31 -44 30
-161 62 -244 67 l-63 4 -73 -76 c-65 -68 -76 -85 -96 -151 -20 -66 -21 -81
-11 -135 11 -62 80 -201 127 -257 13 -16 24 -37 24 -47 0 -9 7 -23 15 -30 21
-17 19 -40 -3 -40 -35 0 -127 32 -163 56 -46 31 -91 44 -154 44 -30 0 -88 12
-140 30 -50 17 -99 32 -110 34 -50 9 -104 28 -126 44 -32 24 -134 72 -153 72
-8 0 -21 9 -29 20 -8 12 -38 27 -73 35 -32 9 -70 24 -84 34 -14 10 -43 21 -65
25 -22 4 -54 19 -72 32 -17 13 -44 24 -60 24 -33 0 -121 26 -138 40 -7 6 -37
17 -66 26 -30 9 -74 31 -99 49 -25 18 -65 38 -89 45 -26 7 -55 24 -70 41 -16
18 -35 29 -52 29 -14 0 -48 12 -74 26 -49 26 -78 37 -193 78 -34 13 -68 28
-74 34 -7 7 -18 12 -25 12 -7 0 -30 9 -50 20 -21 11 -51 20 -68 20 -16 0 -43
7 -59 15 -16 9 -67 26 -114 40 -47 14 -95 31 -108 40 -13 8 -36 15 -52 15 -16
0 -40 8 -53 17 -13 10 -63 38 -112 63 -48 25 -90 53 -93 62 -3 9 -20 22 -38
28 -19 6 -42 20 -51 30 -10 11 -27 20 -38 20 -11 0 -34 16 -52 35 -22 23 -48
38 -77 44 -24 6 -52 21 -64 34 -12 14 -32 28 -45 32 -13 4 -31 13 -39 19 -32
24 -76 44 -112 51 -21 4 -42 13 -49 21 -6 8 -17 14 -23 14 -21 0 -91 42 -133
81 -24 22 -48 39 -55 39 -7 0 -33 22 -58 49 -25 28 -59 53 -75 57 -17 4 -50
22 -74 41 -24 18 -47 33 -51 33 -4 0 -10 10 -14 23 -3 12 -22 33 -43 47 -41
27 -82 61 -123 100 -38 36 -123 87 -158 94 -18 4 -55 33 -96 76 -54 55 -75 70
-108 75 -32 6 -51 19 -95 66 -31 32 -81 78 -112 101 -31 24 -81 68 -111 98
-30 30 -106 103 -168 161 -61 59 -112 112 -112 118 0 6 -13 17 -30 26 -16 9
-30 20 -30 25 0 5 -11 26 -25 46 -14 20 -29 52 -34 70 -5 19 -25 56 -44 82
-19 26 -38 57 -41 70 -4 12 -13 22 -19 22 -26 0 -67 51 -67 83 0 20 -15 57
-40 97 -53 87 -68 120 -86 193 -9 34 -22 69 -30 78 -8 8 -14 27 -14 41 0 14
-11 42 -25 62 -13 20 -22 43 -19 51 3 8 -5 28 -19 44 -22 27 -24 36 -20 98 5
67 4 69 -35 121 -22 29 -44 65 -49 80 -32 91 -33 94 -16 145 13 39 14 54 5 68
-13 20 -14 75 -3 124 5 20 1 42 -10 65 -17 34 -54 268 -44 278 2 2 -3 18 -11
33 -9 19 -12 35 -6 47 5 9 17 47 26 84 10 37 24 72 31 78 7 6 11 19 8 29 -2
10 5 49 16 86 12 37 21 78 21 92 0 14 7 37 15 51 8 15 22 53 31 85 9 32 22 61
29 63 21 9 62 77 83 140 37 109 54 139 108 189 30 28 54 56 54 62 0 6 11 24
23 40 13 15 27 40 31 56 7 28 24 48 71 80 14 11 33 34 42 53 9 19 25 36 35 40
9 3 26 19 35 36 15 26 149 141 217 187 11 8 30 23 41 32 20 18 123 70 205 105
51 21 101 53 113 72 4 6 22 12 40 12 44 0 109 26 203 82 45 26 87 48 94 48 15
0 98 47 118 67 7 7 25 16 40 19 69 15 132 35 137 44 3 6 22 10 41 10 19 0 49
8 67 17 18 9 50 20 72 24 40 7 71 17 155 49 140 54 190 63 245 44 22 -7 69
-13 105 -13 69 1 164 -5 295 -16 44 -4 98 -9 120 -11 22 -2 45 -4 50 -4 6 -1
29 2 51 6 31 5 48 2 67 -11 27 -17 164 -60 259 -80 18 -3 38 -20 54 -44 14
-22 43 -51 64 -65 22 -14 65 -53 97 -87 59 -63 169 -157 281 -243 36 -27 80
-73 104 -109 23 -34 55 -78 72 -98 17 -20 39 -46 48 -57 16 -20 27 -22 134
-22 63 0 124 5 135 10 10 6 33 40 49 77 17 36 48 85 69 108 22 24 47 58 57 76
9 19 43 68 75 110 33 42 59 81 59 87 0 6 17 29 38 50 20 22 54 60 75 86 22 26
58 56 80 67 23 12 54 33 68 48 29 29 64 55 114 86 17 11 61 39 96 62 35 24 70
43 78 43 17 0 67 22 206 90 82 41 106 49 135 44 30 -5 49 2 123 45 109 63 139
72 256 77 52 3 101 10 108 16 8 6 57 12 111 13 53 1 108 7 122 13 14 6 32 8
40 6 8 -3 36 -9 62 -14z m1898 -4735 c30 0 81 -9 113 -19 45 -15 67 -17 95
-10 43 11 117 -8 197 -51 29 -15 72 -28 104 -31 66 -6 82 -14 148 -75 28 -27
59 -49 68 -49 9 0 38 -20 64 -45 26 -25 54 -45 61 -45 7 0 34 -10 59 -21 25
-12 55 -26 66 -31 11 -5 31 -24 45 -43 14 -18 46 -48 72 -65 26 -18 55 -45 64
-59 10 -14 23 -29 30 -33 11 -7 28 -36 122 -208 13 -25 37 -68 53 -96 16 -28
29 -58 29 -65 0 -8 13 -42 30 -77 16 -35 29 -73 29 -85 0 -12 6 -40 15 -62 8
-22 15 -57 16 -78 0 -26 9 -50 29 -75 24 -31 31 -57 49 -167 21 -137 22 -227
2 -310 -6 -27 -21 -88 -32 -135 -11 -47 -28 -101 -38 -120 -10 -19 -24 -51
-30 -71 -8 -29 -24 -45 -70 -74 -39 -25 -68 -52 -85 -81 -14 -24 -38 -50 -53
-58 -30 -16 -114 -82 -149 -117 -13 -12 -36 -23 -53 -24 -47 -4 -125 -76 -145
-134 -8 -26 -13 -55 -9 -64 11 -30 -24 -31 -66 -2 -46 32 -151 47 -166 24 -18
-29 -23 -123 -9 -175 13 -52 32 -94 45 -104 16 -13 70 -103 70 -118 0 -10 6
-26 14 -37 32 -47 41 -102 43 -265 1 -91 4 -187 8 -215 3 -27 7 -129 8 -225 2
-112 7 -185 15 -204 10 -22 10 -37 1 -63 -6 -19 -8 -42 -4 -51 18 -43 13 -183
-10 -265 l-22 -82 -63 3 c-67 3 -130 29 -166 67 -11 12 -45 30 -75 40 -30 10
-64 26 -75 37 -12 10 -45 26 -73 34 -28 8 -72 20 -98 27 -27 8 -62 21 -80 30
-18 10 -44 17 -58 17 -32 0 -73 21 -99 49 -13 14 -26 19 -41 15 -12 -3 -55 -1
-95 5 -93 13 -235 -4 -266 -31 -11 -10 -32 -18 -47 -18 -32 0 -97 -37 -97 -56
0 -8 -7 -14 -15 -14 -28 0 -81 -32 -100 -60 -11 -16 -27 -31 -37 -33 -10 -3
-18 -13 -18 -24 -1 -28 -78 -143 -98 -143 -9 0 -25 -7 -36 -15 -16 -12 -25
-11 -72 13 -39 20 -53 33 -53 49 -1 12 -14 37 -30 55 -16 18 -36 49 -44 68 -9
19 -24 51 -35 70 -11 19 -34 64 -51 100 -51 106 -126 246 -138 261 -6 8 -14
33 -18 56 -4 23 -21 61 -38 84 -18 23 -39 51 -47 63 -8 12 -45 53 -82 91 -38
38 -68 73 -68 77 0 4 -13 22 -30 41 -16 19 -34 45 -40 58 -5 13 -26 44 -44 69
-19 25 -35 54 -35 66 -1 12 -10 31 -21 44 -11 13 -20 29 -20 37 0 7 -21 29
-47 48 -27 19 -66 55 -88 81 -22 26 -56 64 -75 84 -47 49 -110 152 -135 220
-11 30 -30 65 -43 78 -12 12 -25 36 -29 53 -3 16 -15 35 -27 41 -11 6 -25 17
-29 24 -4 8 -14 14 -21 14 -21 0 -51 41 -95 131 -28 59 -56 99 -89 129 -56 51
-92 106 -92 140 0 14 -9 39 -20 55 -25 38 -25 66 1 99 25 32 74 35 128 7 20
-10 70 -29 111 -41 41 -12 94 -31 118 -42 29 -14 54 -19 78 -15 64 11 144 -38
157 -94 4 -14 17 -30 31 -37 13 -6 39 -24 57 -40 56 -48 170 -124 219 -145 25
-11 61 -33 80 -48 19 -15 52 -31 72 -34 21 -4 42 -13 49 -21 6 -8 24 -14 39
-14 32 0 147 35 167 51 22 19 15 54 -18 85 -17 16 -37 41 -45 57 -8 15 -23 27
-33 27 -10 0 -26 9 -37 21 -17 19 -92 59 -112 59 -5 0 -19 11 -32 25 -13 14
-31 25 -39 26 -30 1 -136 64 -146 86 -5 13 -22 27 -38 33 -16 5 -31 19 -34 29
-3 11 -15 23 -27 27 -25 8 -48 30 -66 65 -7 13 -26 40 -41 60 -16 20 -29 43
-29 50 0 8 -19 43 -42 79 -36 56 -42 74 -44 130 -2 36 -4 70 -5 75 -4 31 12
157 25 203 9 28 23 76 32 105 8 28 26 93 40 142 15 56 36 105 54 130 17 22 37
56 45 75 9 19 22 41 29 50 8 8 22 39 31 68 14 43 24 56 55 72 27 14 39 28 48
58 20 66 195 245 267 272 15 6 47 33 72 60 24 27 54 52 66 56 12 3 36 18 52
33 17 15 48 36 70 47 22 10 53 29 69 42 22 17 36 21 58 17 19 -5 35 -2 46 8
20 17 61 32 80 28 7 -1 27 7 45 18 30 18 176 39 312 45 22 1 51 8 65 15 16 10
57 13 126 13 66 -1 116 3 141 12 21 8 45 12 53 8 8 -3 40 -6 70 -7z"/>
<path d="M5677 8043 c-13 -13 -7 -21 13 -16 11 3 17 9 14 14 -6 11 -18 12 -27
2z"/>
<path d="M5987 8043 c-25 -6 -11 -23 19 -23 15 0 24 5 22 12 -5 14 -17 17 -41
11z"/>
<path d="M5086 8004 c-20 -19 -20 -25 -2 -50 16 -21 15 -21 32 34 2 7 7 12 11
11 20 -3 34 2 28 11 -9 15 -52 12 -69 -6z"/>
<path d="M6530 8017 c0 -13 63 -67 71 -61 11 6 12 41 2 47 -13 8 -73 19 -73
14z"/>
<path d="M5218 7812 c-54 -36 -100 -109 -108 -172 -4 -40 -8 -45 -35 -50 -36
-6 -42 -29 -16 -61 l20 -24 21 23 c11 12 24 22 28 22 4 0 13 14 19 30 8 20 18
30 32 30 27 0 88 83 96 132 12 70 -12 99 -57 70z"/>
<path d="M6453 7823 c-8 -3 -13 -23 -13 -52 0 -37 8 -58 39 -106 35 -53 38
-62 25 -76 -21 -23 -17 -38 12 -49 18 -7 24 -16 22 -32 -5 -34 15 -30 40 9 30
46 26 79 -8 75 -25 -2 -25 -2 5 22 29 23 29 25 16 61 -18 52 -55 104 -93 131
-18 13 -32 24 -32 23 -1 0 -7 -3 -13 -6z"/>
<path d="M5012 7781 c-30 -41 -50 -103 -44 -140 6 -45 30 -39 38 9 5 33 10 39
24 35 13 -4 26 7 49 40 38 56 38 63 5 75 -39 15 -48 12 -72 -19z"/>
<path d="M6609 7763 c5 -10 16 -35 25 -56 14 -34 17 -36 35 -25 27 17 34 49
13 71 -15 17 -17 17 -22 1 -6 -17 -8 -16 -26 4 -22 26 -38 29 -25 5z"/>
<path d="M5306 7704 c-15 -37 -25 -69 -22 -72 11 -10 149 -12 162 -2 9 8 15 7
21 -4 11 -20 81 -25 94 -6 8 13 11 13 23 -2 7 -10 22 -18 34 -18 11 0 23 8 27
18 6 16 7 16 16 0 13 -23 91 -25 108 -4 11 13 15 12 32 -5 26 -26 65 -24 94 6
67 66 -15 184 -92 130 -18 -13 -22 -13 -33 0 -17 20 -147 17 -155 -3 -5 -12
-10 -11 -27 7 -17 19 -23 21 -34 9 -7 -7 -17 -29 -22 -48 l-10 -35 -7 43 c-9
53 -36 57 -66 10 l-20 -33 6 32 c7 37 -6 49 -36 33 -15 -9 -24 -9 -32 -1 -22
22 -35 10 -61 -55z m559 -29 c0 -28 -29 -25 -33 3 -3 19 0 23 15 20 10 -2 18
-12 18 -23z"/>
<path d="M6093 7760 c-24 -10 -36 -40 -31 -80 2 -19 -2 -25 -17 -25 -19 0 -27
15 -40 78 -4 22 -10 28 -28 25 -24 -3 -24 -4 -11 -105 l7 -53 100 2 c86 1 102
4 118 22 15 15 22 17 31 8 17 -17 73 -15 88 3 9 11 17 12 32 4 28 -15 72 -7
76 14 6 30 -7 65 -34 92 -46 46 -100 22 -88 -40 5 -28 3 -33 -18 -38 -15 -5
-27 -1 -35 9 -11 16 -8 44 5 42 36 -4 44 25 12 42 -15 8 -28 7 -55 -5 -31 -15
-36 -15 -57 -1 -25 18 -25 18 -55 6z m281 -63 c6 -9 7 -19 3 -23 -9 -9 -37 15
-37 33 0 18 20 12 34 -10z m-220 -28 c-9 -15 -31 -10 -38 7 -10 26 4 37 25 18
10 -9 16 -21 13 -25z"/>
<path d="M6710 7613 c-1 -16 -1 -64 0 -109 0 -44 -3 -91 -8 -104 -9 -23 -9
-22 -16 13 -13 68 -36 39 -36 -45 0 -40 -3 -49 -15 -44 -11 4 -15 -1 -15 -17
0 -13 -9 -32 -19 -44 -26 -28 -49 -75 -44 -90 9 -25 38 -12 84 37 44 47 48 49
54 29 5 -15 2 -25 -9 -31 -19 -11 -22 -48 -3 -48 9 0 9 -2 1 -8 -7 -4 -14 -18
-15 -32 -3 -15 -12 -26 -26 -30 -30 -7 -65 -38 -60 -53 2 -7 17 -11 32 -9 39
4 46 -14 23 -54 -22 -37 -49 -47 -41 -14 3 11 1 20 -5 20 -18 0 -24 -20 -12
-35 9 -11 9 -23 2 -45 -13 -35 -4 -39 21 -10 9 11 27 20 39 20 17 0 19 3 9 9
-11 7 -9 13 8 30 26 26 34 27 26 2 -4 -12 0 -21 11 -25 9 -4 17 -5 18 -4 14
26 38 164 36 206 -1 31 -2 64 -1 72 0 8 2 96 5 195 4 125 2 190 -6 212 -15 40
-37 43 -38 6z"/>
<path d="M5200 7561 c-36 -10 -51 -47 -47 -114 4 -63 14 -77 60 -77 33 0 48
-27 24 -45 -15 -11 -15 -15 -2 -41 8 -16 24 -40 35 -54 l20 -25 20 23 c31 37
15 92 -35 119 -19 11 -19 12 5 21 l25 10 -27 12 c-33 15 -33 20 -11 82 15 43
15 48 -1 72 -17 27 -24 29 -66 17z m35 -100 c-10 -34 -25 -24 -25 16 0 34 1
36 16 21 10 -10 14 -23 9 -37z"/>
<path d="M6368 7559 c-22 -13 -24 -73 -3 -113 17 -33 12 -46 -18 -46 -12 0
-31 -7 -41 -15 -17 -13 -18 -15 -3 -15 18 0 23 -25 7 -35 -5 -3 -10 -15 -10
-26 0 -14 7 -19 29 -19 44 0 79 16 112 52 19 21 29 27 29 17 0 -9 -11 -26 -25
-39 -33 -31 -35 -94 -4 -110 41 -23 71 47 32 75 -16 12 -16 14 -1 29 22 21 25
20 59 -9 32 -26 55 -24 64 5 11 36 -5 68 -38 76 -35 8 -34 8 -59 -1 -15 -6
-17 0 -15 57 2 80 -16 122 -49 114 -13 -4 -26 -2 -29 4 -8 12 -15 12 -37 -1z
m50 -81 c-2 -13 -7 -23 -13 -23 -5 0 -11 10 -13 23 -2 15 2 22 13 22 11 0 15
-7 13 -22z"/>
<path d="M4927 7407 c-4 -78 -4 -158 -2 -177 3 -19 7 -147 8 -285 2 -185 7
-257 17 -278 10 -21 11 -32 2 -50 -7 -14 -10 -77 -9 -173 l2 -150 36 -32 c29
-25 35 -37 31 -58 -2 -14 0 -29 5 -33 10 -6 27 -61 19 -61 -3 0 -19 14 -36 30
-59 57 -58 58 -54 -247 2 -153 7 -312 10 -353 6 -71 8 -76 48 -112 22 -21 46
-38 53 -38 7 0 25 -12 40 -26 l28 -26 3 28 c5 41 16 48 50 30 52 -27 77 -20
132 32 28 27 50 53 50 58 0 5 -17 31 -38 58 -20 27 -42 56 -47 65 -47 74 -66
88 -79 56 -6 -18 -32 -20 -42 -3 -4 6 2 19 14 28 30 25 12 46 -19 22 -16 -13
-30 -17 -44 -11 -39 15 -42 11 -43 -52 0 -99 -43 -100 -69 -2 -13 51 -17 113
-7 113 3 0 15 -12 27 -26 19 -25 21 -26 34 -8 19 26 16 99 -7 144 -28 55 -48
119 -48 156 -1 26 4 33 23 36 13 3 29 0 34 -5 8 -8 11 -7 11 3 0 8 9 26 20 40
26 34 25 50 -4 50 -18 0 -25 7 -29 28 -13 66 -13 67 14 67 l26 -1 -20 33 c-21
37 -34 41 -53 16 -12 -17 -13 -16 -14 5 0 36 0 37 18 35 26 -3 39 35 29 87
-20 112 -20 115 7 147 30 35 33 58 10 67 -28 11 -34 6 -35 -26 -1 -18 -3 -25
-6 -15 -2 9 -9 17 -14 17 -6 0 -8 -9 -4 -20 3 -11 3 -26 -2 -34 -7 -12 -11
-12 -27 -1 -18 14 -18 15 3 48 17 27 20 44 15 79 -6 39 -4 45 17 54 18 9 30 7
56 -9 18 -10 33 -22 33 -25 1 -4 12 -20 26 -37 l26 -30 -6 35 c-10 56 -47 116
-84 136 -32 17 -35 17 -47 1 -7 -9 -20 -17 -29 -17 -12 0 -16 10 -16 43 0 24
5 48 10 53 7 7 7 41 1 100 -5 49 -6 91 -2 94 4 3 12 14 18 24 14 25 -4 67 -26
64 -22 -4 -17 53 6 65 9 6 27 21 39 34 12 12 32 23 46 23 14 0 33 9 43 20 10
11 24 20 32 20 27 0 10 43 -20 51 -38 10 -56 2 -63 -27 -5 -21 -31 -44 -48
-44 -3 0 -13 16 -22 35 -9 19 -23 35 -30 35 -21 0 -17 16 9 34 21 15 21 16 5
29 -22 17 -23 37 -3 37 23 0 18 36 -8 53 l-24 15 -6 -141z m117 -1887 c32 -12
33 -30 3 -58 -29 -27 -37 -20 -37 30 0 42 -1 42 34 28z"/>
<path d="M6617 7473 c-4 -3 -6 -20 -6 -37 1 -24 3 -26 6 -8 2 12 9 22 14 22 5
0 9 7 9 15 0 16 -12 20 -23 8z"/>
<path d="M5174 7313 c4 -13 0 -26 -13 -37 -16 -14 -17 -21 -7 -41 25 -55 70
-2 46 55 -14 35 -36 54 -26 23z"/>
<path d="M5830 7214 c-24 -13 -55 -24 -68 -24 -12 0 -36 -7 -53 -15 -16 -9
-34 -13 -40 -9 -9 5 -45 -5 -94 -27 -37 -17 -108 -3 -130 25 -26 33 -61 33
-105 1 -25 -19 -47 -25 -84 -25 -92 -1 -174 -59 -179 -125 -2 -29 -1 -30 53
-36 30 -3 72 -13 93 -22 31 -15 37 -22 37 -48 0 -17 10 -44 21 -61 26 -36 26
-58 3 -198 -17 -103 -17 -106 4 -150 44 -95 67 -221 52 -285 -7 -31 -5 -45 7
-64 20 -31 14 -132 -10 -159 -20 -22 -22 -70 -3 -97 7 -11 16 -49 20 -85 4
-36 16 -99 26 -140 11 -42 22 -102 26 -135 4 -33 13 -75 20 -94 8 -18 14 -46
14 -60 0 -15 13 -45 30 -67 16 -21 30 -46 30 -54 1 -28 34 -60 50 -50 21 13
30 178 13 242 -8 35 -9 86 -3 185 6 90 5 155 -2 186 -11 53 -10 56 22 167 24
79 27 124 12 143 -14 19 -7 118 11 159 22 49 22 49 -14 124 -40 83 -56 203
-32 240 18 28 21 100 4 117 -22 22 -13 56 17 63 44 11 52 23 46 63 -8 50 13
69 47 42 21 -17 23 -26 21 -81 -2 -45 1 -68 13 -87 13 -19 17 -53 19 -142 2
-64 8 -126 14 -138 8 -14 10 -47 6 -96 -5 -58 -3 -84 11 -120 10 -27 15 -58
12 -74 -4 -15 -10 -48 -15 -73 -10 -49 -28 -101 -49 -140 -17 -34 -16 -71 3
-98 12 -17 17 -57 21 -155 2 -73 8 -148 12 -168 5 -21 5 -43 0 -50 -16 -25 -9
-69 16 -117 27 -51 30 -86 14 -161 -9 -44 -8 -56 11 -98 35 -78 55 -82 89 -15
14 26 34 60 45 76 19 29 23 45 45 186 6 36 16 81 22 101 10 31 8 41 -10 77
-21 40 -21 49 -12 244 8 185 11 209 35 273 15 39 34 78 43 87 30 33 35 93 12
150 -25 62 -21 160 7 203 13 20 15 35 9 73 -5 26 -10 74 -12 107 -2 33 -6 85
-9 116 -6 56 -5 56 23 62 15 3 41 -1 57 -9 16 -7 38 -11 51 -8 37 9 50 -19 47
-100 -2 -52 -9 -79 -24 -99 -14 -21 -18 -36 -13 -55 4 -15 10 -63 12 -106 3
-50 11 -88 21 -105 12 -17 17 -48 18 -100 0 -42 6 -94 12 -116 7 -23 9 -69 6
-110 -3 -38 -7 -86 -8 -105 -2 -19 -8 -48 -15 -65 -7 -17 -9 -45 -6 -68 5 -29
3 -43 -10 -57 -13 -15 -16 -29 -10 -67 3 -26 8 -91 10 -143 4 -117 32 -233 58
-238 22 -4 77 111 77 161 0 38 13 81 41 142 18 40 29 176 33 430 1 57 6 99 15
115 23 40 19 138 -7 180 -18 31 -20 41 -11 80 6 25 8 80 5 126 -7 80 0 122 37
234 44 130 46 164 21 251 -16 54 -66 119 -91 119 -7 0 -19 11 -25 25 -14 31
-39 32 -64 4 -10 -12 -36 -30 -57 -40 -21 -11 -43 -31 -49 -44 -6 -14 -15 -25
-19 -25 -4 0 -14 -3 -23 -6 -9 -4 -30 9 -56 34 -22 21 -60 48 -84 60 -23 12
-51 31 -61 42 -24 26 -67 24 -125 -6z m90 -59 c7 -8 19 -15 27 -15 8 0 26 -9
40 -20 14 -11 31 -20 38 -20 7 0 18 -13 24 -30 7 -21 17 -30 31 -30 26 0 17
-18 -16 -30 -13 -5 -29 -21 -34 -34 -5 -14 -20 -42 -34 -63 -18 -29 -24 -51
-24 -93 0 -30 4 -60 10 -67 5 -7 8 -27 7 -45 -2 -18 3 -59 10 -90 13 -53 13
-60 -3 -77 -34 -38 -37 -159 -6 -237 20 -49 21 -55 6 -81 -26 -49 -43 -86 -69
-153 -23 -59 -25 -74 -20 -173 3 -69 1 -112 -6 -121 -6 -7 -11 -51 -12 -99 -1
-67 3 -93 16 -113 18 -29 18 -41 -12 -214 -9 -53 -24 -107 -34 -122 -11 -14
-19 -33 -19 -42 0 -9 -5 -16 -11 -16 -8 0 -9 13 -4 43 15 78 11 159 -10 202
-16 33 -20 64 -22 175 -3 201 -12 297 -29 311 -8 6 -14 19 -14 29 0 17 22 80
39 110 5 9 12 36 15 60 4 25 14 59 23 76 15 28 14 35 -7 94 -19 55 -22 76 -16
146 5 68 3 84 -10 95 -12 10 -15 24 -10 59 3 25 2 61 -3 80 -4 19 -3 53 1 74
8 35 6 42 -17 66 -23 24 -24 30 -15 56 25 64 -12 154 -66 161 -16 2 -48 6 -70
9 -24 3 -44 2 -48 -4 -3 -5 -7 -33 -8 -62 -2 -45 -6 -54 -29 -66 -15 -7 -29
-21 -33 -29 -11 -30 -6 -85 10 -110 15 -23 15 -27 -6 -66 -18 -36 -20 -52 -15
-108 8 -80 19 -121 51 -186 l24 -50 -24 -50 c-17 -33 -22 -55 -16 -66 5 -9 7
-33 3 -53 -3 -22 -1 -42 7 -51 16 -19 8 -79 -21 -169 -20 -59 -21 -73 -11
-117 8 -33 10 -99 6 -192 -5 -110 -3 -161 10 -226 19 -101 19 -99 1 -75 -8 10
-15 31 -15 46 0 15 -9 42 -20 60 -12 20 -20 51 -20 78 0 25 -11 86 -24 135
-13 50 -27 122 -31 160 -4 39 -14 82 -22 96 -14 23 -13 29 7 69 17 34 22 60
21 109 -1 35 -5 69 -10 75 -5 6 -10 43 -10 81 0 86 -24 201 -52 257 -20 40
-21 46 -8 118 19 114 18 224 -3 247 -10 11 -18 33 -18 50 0 17 -8 40 -17 50
-20 23 -111 63 -142 63 -12 0 -21 6 -21 13 0 17 81 40 133 38 23 0 59 10 88
24 41 21 50 23 55 11 8 -20 59 -42 114 -50 35 -5 54 -2 85 14 21 11 53 20 70
20 17 0 39 6 50 14 11 7 40 16 65 20 25 4 56 13 70 21 32 18 45 18 60 0z m415
-35 c3 -5 16 -10 27 -10 29 0 58 -28 58 -56 0 -13 4 -25 9 -28 19 -12 19 -110
-1 -166 -11 -30 -24 -73 -30 -95 -5 -22 -18 -56 -28 -75 -19 -38 -18 -125 2
-167 6 -12 7 -34 3 -50 -18 -71 -17 -100 4 -134 27 -45 27 -107 -1 -186 -19
-56 -20 -66 -8 -103 11 -34 11 -48 1 -73 -7 -19 -13 -91 -15 -172 -3 -133 -5
-143 -34 -207 -23 -48 -30 -75 -26 -96 3 -16 1 -32 -4 -36 -13 -8 -23 50 -23
134 0 36 0 83 0 105 0 22 5 78 11 125 5 47 15 144 20 217 9 112 8 137 -5 169
-17 42 -19 82 -5 119 8 22 5 36 -16 78 -23 46 -25 60 -19 113 4 40 3 64 -4 69
-16 9 -13 36 5 56 12 14 18 46 21 126 5 102 4 109 -17 128 -14 13 -39 21 -69
22 -82 4 -131 14 -131 28 0 18 48 55 72 55 32 0 98 39 108 64 5 13 20 26 34
30 14 3 26 11 26 16 0 13 27 13 35 0z"/>
<path d="M6711 6884 c0 -11 3 -14 6 -6 3 7 2 16 -1 19 -3 4 -6 -2 -5 -13z"/>
<path d="M6544 6795 c-14 -47 -18 -91 -18 -200 0 -141 10 -204 39 -240 15 -19
15 -17 10 30 -3 28 -7 70 -8 95 -2 25 -6 51 -11 58 -14 24 -14 155 1 225 19
88 11 108 -13 32z"/>
<path d="M6677 6592 c-9 -2 -24 -19 -32 -39 -18 -43 -20 -154 -3 -171 19 -19
45 -14 51 9 3 13 12 19 24 17 14 -2 19 5 21 37 4 40 -12 106 -32 135 -6 9 -19
14 -29 12z"/>
<path d="M5088 6552 c-8 -52 9 -66 48 -38 19 14 19 15 -5 40 -31 33 -38 33
-43 -2z"/>
<path d="M5123 6403 c-3 -10 -8 -21 -10 -25 -2 -5 1 -8 6 -8 6 0 11 7 11 15 0
8 5 15 10 15 6 0 10 5 10 10 0 17 -20 11 -27 -7z"/>
<path d="M5176 6355 c-3 -9 0 -15 9 -15 16 0 20 16 6 24 -5 3 -11 -1 -15 -9z"/>
<path d="M5070 6338 c0 -8 6 -23 14 -34 14 -18 16 -18 32 -2 20 20 13 31 -23
43 -16 4 -23 2 -23 -7z"/>
<path d="M6696 6318 c-23 -32 -20 -39 9 -26 14 6 25 19 25 30 0 25 -16 23 -34
-4z"/>
<path d="M6602 6256 c19 -63 19 -66 1 -90 -22 -32 -35 -32 -48 -3 -20 45 -64
14 -51 -36 8 -33 48 -36 86 -7 31 24 40 25 40 4 0 -9 5 -34 12 -56 l11 -39 19
40 c14 31 22 38 38 34 17 -5 20 0 20 26 0 35 -2 36 -30 19 -31 -20 -55 1 -54
46 1 24 -3 36 -12 36 -9 0 -14 12 -14 33 0 30 -14 57 -31 57 -4 0 2 -29 13
-64z"/>
<path d="M5104 6226 c-4 -16 -2 -32 4 -38 8 -8 13 -3 18 16 4 16 2 32 -4 38
-8 8 -13 3 -18 -16z"/>
<path d="M6710 6235 c0 -8 5 -15 10 -15 6 0 10 7 10 15 0 8 -4 15 -10 15 -5 0
-10 -7 -10 -15z"/>
<path d="M4945 6209 c-4 -6 -5 -12 -2 -15 7 -7 37 7 37 17 0 13 -27 11 -35 -2z"/>
<path d="M6705 6077 c-4 -10 -5 -21 -1 -24 10 -10 18 4 13 24 -4 17 -4 17 -12
0z"/>
<path d="M5196 6034 c-4 -10 -1 -14 6 -12 15 5 23 28 10 28 -5 0 -13 -7 -16
-16z"/>
<path d="M6660 5993 c1 -13 56 -172 62 -178 3 -3 6 24 6 59 1 58 -2 68 -27 95
-29 31 -41 38 -41 24z"/>
<path d="M6595 5950 c-40 -44 -56 -131 -31 -166 23 -31 31 -8 16 48 l-13 52
38 32 c22 18 35 36 31 43 -10 16 -20 14 -41 -9z"/>
<path d="M6536 5953 c-12 -12 -6 -43 9 -43 8 0 15 9 15 19 0 21 -13 34 -24 24z"/>
<path d="M6610 5853 c0 -11 9 -28 20 -38 17 -16 18 -20 5 -38 -8 -12 -15 -40
-15 -62 l0 -40 23 32 c12 18 25 33 28 33 4 0 9 -26 13 -57 8 -69 -10 -141 -39
-157 -11 -6 -24 -15 -28 -21 -6 -6 -10 -6 -14 3 -8 21 -23 13 -23 -13 0 -20 5
-25 25 -25 18 0 25 5 25 20 0 13 7 20 20 20 14 0 20 -7 20 -23 0 -13 5 -28 12
-35 8 -8 8 -15 0 -25 -8 -10 -8 -24 -1 -51 7 -26 7 -53 0 -87 -9 -42 -8 -54 7
-77 l17 -26 6 49 c3 28 3 59 -1 70 -8 22 -5 123 5 194 6 40 5 44 -9 32 -13
-11 -16 -11 -16 2 0 8 5 17 10 19 6 2 16 46 22 99 l10 95 -32 57 c-17 31 -38
57 -45 57 -7 0 -20 3 -29 6 -11 4 -16 0 -16 -13z"/>
<path d="M6563 5630 c0 -36 2 -50 4 -32 2 17 2 47 0 65 -2 17 -4 3 -4 -33z"/>
<path d="M6605 5613 c-11 -45 15 -59 33 -18 15 33 15 32 -7 38 -14 3 -21 -2
-26 -20z"/>
<path d="M6559 5378 c-3 -21 -2 -38 2 -38 15 0 18 17 10 46 l-8 29 -4 -37z"/>
<path d="M4964 5234 c4 -88 6 -181 6 -209 0 -33 3 -45 9 -36 6 9 18 11 39 6
43 -9 48 8 18 60 -36 61 -33 110 5 82 20 -16 59 -97 59 -125 0 -27 15 -36 40
-22 20 11 28 40 10 40 -12 0 -34 40 -26 47 3 3 13 0 22 -8 15 -12 16 -11 11
16 -3 17 -9 69 -12 116 -4 47 -10 90 -13 96 -10 15 -34 -4 -49 -39 -7 -16 -17
-28 -23 -28 -5 0 -10 -7 -10 -15 0 -12 4 -13 25 -3 14 6 28 8 32 4 10 -9 -24
-76 -39 -76 -35 1 -75 79 -49 95 6 3 4 17 -4 33 -7 15 -19 46 -26 70 -25 85
-31 57 -25 -104z"/>
<path d="M6500 5301 c-6 -16 -10 -38 -8 -48 3 -13 9 -8 21 21 19 43 21 56 8
56 -5 0 -14 -13 -21 -29z"/>
<path d="M6540 5311 c0 -5 7 -14 15 -21 8 -7 15 -21 15 -31 0 -10 5 -21 10
-24 14 -8 13 -45 -1 -45 -6 0 -13 9 -16 20 -7 28 -20 25 -38 -10 -18 -36 -33
-38 -44 -8 -8 21 -8 21 -15 -6 -5 -19 -2 -36 10 -53 18 -29 8 -43 -33 -43 -42
0 -148 -32 -161 -48 -10 -14 -17 -14 -45 -4 -74 27 -180 9 -259 -43 l-38 -25
-6 24 c-3 13 -13 26 -22 28 -10 2 -84 4 -167 3 l-150 0 3 -66 c2 -55 -1 -69
-18 -84 -19 -18 -21 -17 -41 1 -18 17 -20 26 -14 81 6 57 5 63 -17 76 -13 8
-54 18 -93 22 -38 4 -90 14 -113 22 -66 22 -76 14 -69 -54 5 -43 2 -64 -11
-85 -13 -23 -14 -32 -4 -48 23 -37 12 -41 -25 -11 -21 17 -40 26 -42 20 -5
-17 61 -70 84 -67 18 3 20 11 23 108 1 58 6 108 11 113 4 4 19 3 33 -2 25 -9
25 -10 24 -129 -1 -85 -5 -124 -15 -135 -18 -23 -73 -21 -121 3 -57 29 -83 26
-62 -7 14 -23 126 -83 154 -83 16 0 41 12 60 29 l34 29 16 -28 c20 -35 74 -64
150 -79 47 -10 65 -9 115 5 32 9 64 21 71 26 9 8 12 5 12 -10 0 -27 18 -32
105 -32 78 0 101 12 88 46 -7 18 -6 18 17 3 14 -9 49 -24 79 -34 45 -15 62
-16 108 -6 31 6 71 20 89 32 27 16 38 18 49 9 18 -15 89 -2 205 38 68 23 86
33 88 50 4 28 -5 28 -124 -3 -53 -14 -99 -25 -103 -25 -3 0 -5 64 -5 142 l1
143 34 11 c19 6 50 17 69 24 19 6 49 15 65 19 18 4 30 13 30 23 0 19 26 68 36
68 4 0 10 -11 13 -24 7 -28 36 -44 36 -19 0 8 9 31 21 49 18 29 18 34 5 34
-10 0 -19 12 -22 30 -4 17 -13 30 -20 30 -8 0 -22 9 -31 20 -18 21 -33 26 -33
11z m-1082 -289 c8 -6 12 -41 13 -115 1 -123 4 -128 85 -135 79 -7 84 0 84
124 l0 104 40 0 39 0 1 -62 c0 -35 1 -72 1 -83 2 -67 -21 -122 -57 -135 -39
-15 -123 -11 -178 8 -75 26 -86 48 -93 185 l-6 117 29 0 c16 0 35 -4 42 -8z
m771 -19 c53 -17 60 -27 38 -57 -13 -18 -15 -18 -40 -1 -36 23 -132 17 -169
-10 -52 -39 -62 -97 -24 -142 22 -25 30 -28 84 -26 57 1 122 25 122 45 0 15
28 8 34 -8 8 -22 3 -29 -52 -59 -88 -51 -204 -43 -258 17 -39 42 -46 85 -25
134 25 55 59 85 124 106 67 22 103 22 166 1z m-349 -78 c3 -39 4 -105 2 -148
l-4 -77 -41 0 -42 0 1 147 c1 82 2 149 3 151 1 2 18 2 39 0 l37 -3 5 -70z
m324 -56 c19 -18 19 -18 -5 -38 -30 -25 -84 -37 -118 -25 -50 18 -31 70 29 84
43 9 69 4 94 -21z m-628 -54 c18 -13 16 -14 -20 -15 -33 0 -37 2 -26 15 15 19
21 19 46 0z"/>
<path d="M6695 5150 c-7 -12 2 -30 16 -30 12 0 12 27 0 35 -5 3 -12 1 -16 -5z"/>
<path d="M6560 5051 c0 -5 -30 -16 -67 -25 -37 -10 -73 -22 -80 -28 -16 -13
-17 -44 -3 -53 12 -7 97 18 143 42 27 14 30 13 53 -8 14 -13 39 -52 56 -86 31
-63 31 -64 18 -131 -7 -37 -11 -114 -10 -172 1 -65 -3 -117 -11 -135 -7 -16
-13 -64 -15 -105 -1 -41 -2 -83 -3 -92 -1 -11 -9 -18 -21 -18 -20 0 -26 22
-22 73 2 15 -1 16 -18 7 -16 -8 -20 -21 -20 -60 0 -41 -4 -52 -22 -64 -33 -20
-111 -30 -105 -14 2 7 17 12 33 11 44 -4 66 18 62 64 -3 34 -6 38 -28 35 -14
-1 -33 -12 -43 -24 -14 -17 -20 -19 -27 -9 -10 18 -40 7 -40 -15 0 -13 -3 -14
-15 -4 -22 18 -41 6 -50 -32 l-8 -33 -6 30 c-7 36 -35 44 -52 16 -12 -18 -14
-18 -25 -3 -10 14 -14 14 -28 3 -9 -7 -16 -22 -16 -33 0 -17 -3 -18 -15 -8
-22 19 -45 -5 -45 -47 0 -23 -5 -36 -17 -40 -10 -3 -26 -13 -35 -20 -15 -13
-16 -13 -11 6 3 12 9 24 14 27 5 3 9 11 9 18 0 8 7 30 15 50 8 20 16 39 16 43
1 5 8 17 15 28 8 11 14 27 14 37 0 12 8 18 23 18 41 0 50 15 56 92 3 40 9 72
14 71 4 -2 16 -3 27 -3 17 0 20 -7 20 -50 0 -40 4 -51 21 -61 35 -18 96 -3
209 51 8 4 20 22 26 41 l12 34 13 -27 c12 -28 33 -36 43 -19 3 5 -3 11 -13 14
-13 3 -24 20 -31 46 -16 60 -40 55 -40 -9 0 -27 -4 -50 -8 -50 -21 0 -27 25
-24 95 3 72 5 77 30 88 15 6 36 18 46 26 14 12 20 13 23 4 6 -17 23 -16 23 1
0 8 -6 16 -14 19 -18 7 -86 -12 -109 -31 -10 -9 -43 -17 -78 -19 -33 -1 -73
-9 -87 -17 -15 -8 -79 -20 -142 -27 -63 -6 -125 -15 -137 -20 -12 -4 -36 -4
-54 1 -20 6 -47 6 -73 -1 -23 -5 -50 -11 -62 -13 -11 -2 -26 -6 -32 -10 -7 -4
-12 -1 -12 9 0 26 -46 65 -78 65 -38 0 -52 -17 -52 -62 l0 -39 -39 32 c-36 29
-44 31 -86 24 -50 -7 -105 8 -105 29 0 21 -17 36 -49 46 -27 7 -36 5 -52 -11
-31 -31 -80 -35 -103 -10 -25 27 -39 26 -71 -3 -15 -14 -33 -22 -42 -19 -12 5
-14 1 -8 -18 15 -47 20 -52 38 -34 19 18 22 14 8 -13 -5 -9 -12 -25 -15 -34
-7 -25 -33 -12 -41 20 -4 18 -9 22 -14 13 -5 -7 -6 -22 -4 -32 4 -13 0 -19
-11 -19 -18 0 -20 -9 -6 -30 9 -13 12 -13 24 3 12 15 15 15 26 2 7 -8 21 -15
31 -15 15 0 19 -8 19 -38 0 -27 7 -45 21 -58 19 -17 23 -17 47 -3 16 9 29 26
32 43 l5 28 24 -26 c14 -15 26 -34 27 -43 5 -31 26 -61 48 -67 27 -7 66 19 66
44 0 19 27 40 52 40 8 0 22 -13 31 -30 14 -22 26 -30 47 -30 34 0 50 23 50 70
l0 31 25 -18 c14 -10 28 -31 33 -47 11 -40 34 -53 70 -40 32 12 50 6 84 -28
15 -15 17 -23 9 -31 -16 -16 -13 -74 5 -113 9 -19 14 -37 11 -40 -3 -4 -42 -8
-87 -10 -62 -3 -87 0 -106 12 -19 13 -22 20 -14 34 6 10 10 33 10 50 0 35 -26
50 -89 50 -48 0 -65 -19 -58 -65 3 -19 2 -35 -4 -35 -5 0 -9 20 -9 44 0 52
-24 76 -76 76 -37 0 -53 -16 -49 -50 1 -14 3 -31 4 -38 0 -7 12 -11 29 -10 29
2 52 -7 52 -22 0 -10 -121 -7 -139 4 -18 11 -13 26 8 26 28 0 36 18 17 39 -14
16 -14 19 0 33 15 15 14 18 -14 32 -39 20 -72 21 -72 1 0 -8 -4 -15 -10 -15
-5 0 -10 7 -10 15 0 9 -9 15 -22 15 -12 0 -29 7 -38 15 -15 14 -18 14 -30 0
-18 -22 -4 -65 21 -65 11 0 22 -7 25 -15 4 -8 16 -15 29 -15 24 0 49 -22 38
-33 -9 -10 -83 3 -117 20 -16 8 -39 12 -53 8 -22 -5 -25 -10 -19 -38 5 -22 3
-28 -4 -21 -12 12 -56 185 -57 219 -1 65 -17 224 -24 243 -5 13 -9 42 -10 65
0 23 -4 51 -8 62 -15 39 -21 -49 -21 -291 1 -237 2 -239 27 -284 14 -25 39
-59 55 -76 26 -28 35 -31 69 -27 42 6 47 2 25 -20 -12 -12 -4 -19 57 -50 70
-35 166 -67 217 -71 14 -2 61 -10 105 -19 44 -8 122 -18 173 -22 79 -5 92 -4
92 10 0 8 7 15 15 15 8 0 23 9 32 20 22 26 63 27 63 2 0 -10 -5 -23 -12 -30
-21 -21 -1 -24 51 -8 36 11 59 12 76 6 16 -6 61 -5 125 2 94 12 100 14 100 35
0 22 1 23 23 8 31 -20 103 -7 190 33 72 34 91 53 82 82 -7 23 18 70 37 70 6 0
26 16 45 36 28 30 36 34 49 23 34 -28 38 3 39 259 0 136 -3 301 -6 367 l-6
120 -54 82 c-47 72 -79 102 -79 74z m-1322 -473 c8 -8 12 -47 12 -110 0 -80
-3 -98 -15 -98 -12 0 -15 16 -15 83 0 48 -5 88 -11 94 -12 12 -6 43 9 43 4 0
13 -5 20 -12z m182 -40 c0 -13 -3 -48 -6 -79 -4 -42 -2 -58 10 -68 25 -21 50
28 42 85 -5 43 -5 45 17 42 18 -2 22 -10 23 -43 1 -58 -9 -77 -52 -100 -23
-12 -41 -30 -45 -45 -7 -26 -8 -26 -14 3 -2 10 -19 35 -39 57 -37 41 -60 100
-54 140 3 25 12 28 55 15 19 -6 25 -2 34 21 9 25 12 27 20 12 5 -9 9 -27 9
-40z m1030 22 c0 -5 -4 -10 -9 -10 -6 0 -13 5 -16 10 -3 6 1 10 9 10 9 0 16
-4 16 -10z m-688 -117 c-1 -54 -1 -101 -2 -105 0 -14 -20 -8 -20 6 0 8 -27 37
-60 66 -73 63 -93 62 -89 -7 2 -26 -1 -48 -7 -50 -6 -2 -10 29 -9 79 0 49 4
83 11 85 6 2 39 -19 73 -47 35 -27 67 -47 72 -44 5 3 9 35 9 72 0 49 3 63 11
55 8 -8 11 -48 11 -110z m612 79 c-1 -21 -4 -48 -8 -60 -4 -12 -2 -31 4 -43
16 -28 -2 -49 -28 -33 -14 9 -16 24 -13 85 1 41 8 77 15 81 23 16 32 7 30 -30z
m-101 12 c11 -11 -3 -24 -18 -18 -8 4 -12 10 -9 15 6 11 18 12 27 3z m-282
-25 c30 -15 13 -29 -36 -29 -48 0 -63 -11 -41 -30 10 -8 25 -9 49 -2 39 11 67
0 67 -27 0 -24 -53 -105 -81 -125 -34 -23 -62 -20 -90 10 l-24 27 25 -7 c55
-17 64 -13 88 36 13 26 21 52 17 58 -4 7 -27 10 -53 8 -41 -3 -48 0 -61 24
-18 32 -14 38 29 45 18 2 42 8 54 13 28 12 34 12 57 -1z m199 -69 c0 -63 -3
-82 -15 -87 -9 -3 -19 -3 -22 1 -4 4 -7 144 -3 164 0 1 9 2 20 2 18 0 20 -7
20 -80z m-103 53 c-9 -9 -19 -14 -23 -11 -10 10 6 28 24 28 15 0 15 -1 -1 -17z
m8 -191 c-7 -7 -18 -14 -26 -16 -8 -1 -29 -9 -48 -19 -53 -26 -55 -21 -13 31
21 26 50 70 63 97 l23 50 7 -65 c4 -44 2 -69 -6 -78z m375 128 c0 -5 -5 -10
-11 -10 -5 0 -7 5 -4 10 3 6 8 10 11 10 2 0 4 -4 4 -10z m-629 -53 c-13 -13
-31 1 -31 25 0 21 1 21 20 3 13 -12 17 -22 11 -28z m64 -7 c-3 -5 -12 -7 -20
-3 -21 7 -19 13 6 13 11 0 18 -4 14 -10z m495 -205 c0 -8 -7 -15 -15 -15 -16
0 -20 12 -8 23 11 12 23 8 23 -8z m-144 -41 c-3 -8 -10 -14 -15 -14 -10 0 -9
9 6 48 6 16 6 16 10 -1 3 -10 2 -25 -1 -33z m-1098 -16 c17 -17 15 -28 -7 -28
-22 0 -35 15 -26 30 8 13 18 13 33 -2z m484 -30 c-7 -7 -12 -8 -12 -2 0 14 12
26 19 19 2 -3 -1 -11 -7 -17z m-25 6 c-3 -3 -12 -4 -19 -1 -8 3 -5 6 6 6 11 1
17 -2 13 -5z m-221 -30 c-3 -9 -6 -20 -6 -25 0 -5 -4 -9 -10 -9 -11 0 -14 33
-3 43 12 13 25 7 19 -9z m183 -7 c6 -8 8 -17 4 -20 -11 -12 -21 -7 -26 13 -6
23 5 26 22 7z m-94 -18 c4 -6 5 -12 2 -15 -7 -7 -37 7 -37 17 0 13 27 11 35
-2z m440 -53 c0 -43 -11 -53 -38 -34 -15 11 -16 18 -6 46 16 47 44 40 44 -12z
m453 18 c26 -18 20 -38 -8 -29 -11 3 -27 2 -37 -3 -20 -11 -84 14 -91 36 -6
19 108 16 136 -4z m-864 -15 c-8 -14 -24 -10 -24 6 0 9 6 12 15 9 8 -4 12 -10
9 -15z"/>
<path d="M5347 4524 c-12 -12 -8 -43 9 -76 21 -40 36 -24 32 33 -3 42 -22 62
-41 43z"/>
<path d="M6687 5010 c3 -11 7 -20 9 -20 2 0 4 9 4 20 0 11 -4 20 -9 20 -5 0
-7 -9 -4 -20z"/>
<path d="M5102 4946 c1 -10 8 -17 13 -17 15 1 12 24 -3 29 -9 3 -13 -2 -10
-12z"/>
<path d="M4982 4910 c0 -14 2 -19 5 -12 2 6 2 18 0 25 -3 6 -5 1 -5 -13z"/>
<path d="M6440 4897 c-29 -10 -36 -17 -38 -44 -2 -22 1 -33 10 -33 24 0 94 25
119 41 20 14 22 18 10 33 -16 19 -51 20 -101 3z"/>
<path d="M4970 4821 c0 -11 5 -23 10 -26 6 -4 10 5 10 19 0 14 -4 26 -10 26
-5 0 -10 -9 -10 -19z"/>
<path d="M5073 4663 c-15 -5 -18 -33 -4 -33 6 0 13 5 16 10 4 6 11 7 17 4 6
-4 9 -1 6 6 -5 16 -18 20 -35 13z"/>
<path d="M6548 4599 c-18 -10 -25 -39 -9 -39 12 0 33 28 29 39 -2 6 -9 6 -20
0z"/>
<path d="M6587 4573 c-8 -13 25 -87 43 -98 16 -10 11 15 -9 43 -10 15 -20 36
-23 47 -2 14 -6 16 -11 8z"/>
<path d="M5070 4524 c0 -8 5 -12 10 -9 6 3 10 10 10 16 0 5 -4 9 -10 9 -5 0
-10 -7 -10 -16z"/>
<path d="M5090 4286 c0 -26 6 -38 21 -46 24 -13 35 -7 23 12 -5 7 -9 24 -9 38
0 15 -6 26 -17 28 -15 3 -18 -4 -18 -32z"/>
<path d="M5690 4181 c0 -10 6 -24 14 -30 8 -7 17 -23 20 -36 9 -36 32 -31 61
15 37 59 30 81 -20 58 -19 -9 -28 -9 -37 0 -18 18 -38 14 -38 -7z"/>
<path d="M8636 4308 c-43 -39 -90 -146 -89 -204 2 -114 75 -173 159 -129 16 8
36 15 45 15 9 0 22 6 28 14 20 24 41 125 40 188 -2 55 -5 63 -39 99 -31 33
-43 39 -78 39 -28 0 -49 -7 -66 -22z"/>
<path d="M9585 4050 c-30 -12 -91 -82 -120 -139 -18 -37 -25 -66 -25 -109 0
-51 4 -62 28 -84 38 -36 65 -48 107 -48 42 0 75 15 75 34 0 8 6 19 14 25 7 6
23 37 34 69 18 49 20 69 13 136 -6 69 -11 82 -35 102 -28 25 -56 29 -91 14z"/>
<path d="M8540 3700 c-14 -11 -32 -20 -41 -20 -36 0 -41 -23 -28 -132 6 -57
16 -109 22 -116 6 -8 11 -45 11 -83 l1 -69 50 -48 c61 -58 91 -77 131 -85 17
-3 53 -19 81 -35 86 -51 178 -76 273 -76 115 1 190 29 255 94 12 11 30 20 42
20 12 0 58 30 102 66 71 58 81 70 83 100 0 19 1 40 2 47 1 15 -111 76 -142 77
-13 0 -42 -18 -70 -44 -40 -37 -124 -86 -149 -86 -4 0 -18 -11 -30 -24 -13
-13 -47 -36 -77 -51 -71 -36 -128 -30 -202 20 -28 19 -56 35 -62 35 -7 0 -25
18 -41 40 -28 38 -29 44 -29 155 -1 118 -10 153 -50 201 -26 31 -100 39 -132
14z"/>
</g>
</svg>
