<svg version="1.1" id="Layer_1" xmlns="http://www.w3.org/2000/svg" xmlns:xlink="http://www.w3.org/1999/xlink" x="0px" y="0px"
	 width="100%" viewBox="0 0 736 720" enable-background="new 0 0 736 720" xml:space="preserve">
<path fill="#ffffff" opacity="1.000000" stroke="none" 
	d="
M479.293915,45.945511 
	C485.443665,45.502789 490.886108,45.649406 496.273926,48.388561 
	C499.597565,50.078289 503.873199,49.147152 507.573853,49.148430 
	C512.985291,49.150299 518.307373,50.494320 523.725525,49.871395 
	C525.340759,49.685688 527.057190,49.912140 528.668335,50.239639 
	C535.393005,51.606556 541.598389,54.526184 548.976685,53.995869 
	C554.605774,53.591282 559.598267,58.363644 565.046997,60.304279 
	C580.864441,65.937859 589.948608,78.980370 599.724487,91.230202 
	C605.550476,98.530563 612.808228,104.744972 616.816895,113.468155 
	C617.340332,114.607094 618.467712,115.543686 619.483276,116.366730 
	C622.169556,118.543777 624.482910,120.776634 623.621216,124.754936 
	C623.433411,125.621910 623.949951,126.717918 624.341431,127.622185 
	C629.040955,138.478867 631.893127,149.985016 636.195923,161.001633 
	C639.855835,170.372406 642.059814,180.099396 642.310120,190.492737 
	C642.632996,203.899246 643.490173,217.367371 644.666687,230.730118 
	C646.449097,250.974426 642.805786,269.818665 635.995300,288.870697 
	C631.120605,302.507263 623.484436,314.950012 619.969177,329.132660 
	C618.577881,334.746216 614.015259,338.994080 609.481140,342.741394 
	C608.466797,343.579712 607.189575,344.147675 606.314087,345.098572 
	C600.637512,351.263916 599.103271,359.671570 594.143066,366.657959 
	C602.406250,366.711090 609.184570,371.349243 616.958069,370.639496 
	C620.641602,370.303192 624.113953,370.866669 627.617798,372.371490 
	C633.670410,374.971069 640.517578,374.997223 646.551025,377.967377 
	C649.074829,379.209839 652.221802,379.714203 654.029358,381.809692 
	C659.814941,388.516968 668.203796,390.883728 675.270691,395.417236 
	C680.564636,398.813416 685.273987,402.983826 689.598694,407.993439 
	C695.412964,414.728546 700.446716,421.784210 704.922302,429.341705 
	C711.338013,440.175354 716.656921,451.485626 718.276123,464.145599 
	C718.996643,469.779419 722.653503,474.081665 724.512573,479.188293 
	C725.555481,482.052856 726.232666,484.697906 725.625183,487.881775 
	C724.721558,492.618530 724.514160,497.561951 726.389893,502.167999 
	C728.344543,506.967896 724.845459,510.773376 724.372925,515.128052 
	C724.071472,517.905945 722.930115,520.523132 723.933655,523.423584 
	C724.282898,524.432861 724.314148,526.033569 723.739990,526.806641 
	C717.870911,534.709229 717.289062,546.517700 706.236938,550.602600 
	C704.689148,551.174561 704.163452,552.665100 703.594849,554.070557 
	C702.619568,556.481628 700.881348,558.308105 698.704773,559.586975 
	C692.762085,563.078613 687.982178,567.845276 683.485352,572.966125 
	C679.438965,577.573853 673.800293,578.408020 668.096680,575.385132 
	C667.125793,574.870605 666.515381,573.539062 664.999573,573.983948 
	C663.582764,576.070129 664.937317,577.834961 665.986755,579.383301 
	C671.707092,587.822937 673.023987,597.743408 675.492676,607.267517 
	C675.895508,608.821838 675.978882,610.665955 674.857483,612.090210 
	C673.367065,613.983337 673.789917,616.043640 673.691711,618.220337 
	C673.399902,624.685669 671.258484,631.006897 674.597778,637.548645 
	C675.710571,639.728577 673.311401,643.124268 673.108948,646.196472 
	C672.601501,653.896301 675.817566,661.071045 675.651550,668.776245 
	C675.570679,672.529053 675.281982,676.348206 675.294006,680.136230 
	C675.310120,685.198975 675.036865,689.926025 678.526978,694.289429 
	C680.721191,697.032654 678.896851,703.768188 675.141357,705.769775 
	C670.789062,708.089478 668.345520,712.356628 664.132385,714.811768 
	C660.670227,716.829224 658.492004,717.274597 654.876038,714.817993 
	C645.815308,708.662415 638.368591,700.180786 627.662903,696.350830 
	C616.293274,692.283508 605.184143,687.493225 593.547852,684.159363 
	C591.760376,683.647278 590.350159,683.820801 589.029724,685.210632 
	C587.973267,686.322693 586.554016,686.997559 585.031250,687.095642 
	C576.012390,687.676208 571.497742,693.979919 567.407715,700.843811 
	C562.911560,708.389343 557.326111,714.895142 548.232727,716.439880 
	C543.019104,717.325623 537.247070,716.661072 532.996826,713.390930 
	C527.957764,709.513977 522.739807,705.314026 520.906738,698.639099 
	C519.731445,694.359314 516.390869,691.364990 514.568176,687.389404 
	C510.436523,678.377625 507.930450,668.599670 501.777069,660.488831 
	C499.610596,657.633179 498.334534,654.092041 497.139221,650.580811 
	C495.751068,646.503174 493.734100,642.680237 490.427643,639.621155 
	C484.241425,633.897583 481.009430,626.118225 476.934143,619.000122 
	C475.023254,615.662415 472.373627,613.202881 469.702728,610.937988 
	C467.053375,608.691467 464.735962,605.936218 462.016876,604.053833 
	C454.499207,598.849487 452.108673,590.625488 448.078827,583.293701 
	C446.004120,579.519104 444.738617,574.901855 439.629700,573.567444 
	C437.627991,573.044678 437.360565,570.988708 436.778931,569.204285 
	C435.760986,566.081421 434.543671,562.960876 431.027466,561.691650 
	C426.634430,566.258362 421.732697,569.219116 415.380249,569.445679 
	C411.158783,569.596191 408.047363,566.872192 405.051178,564.948486 
	C397.021912,559.793213 387.451172,559.175720 379.180511,555.093018 
	C368.924164,550.030151 357.924438,546.868774 347.487061,542.174866 
	C337.975647,537.897400 328.275879,533.412415 317.895172,531.109619 
	C315.338776,530.542480 313.058258,529.695496 311.071533,527.457520 
	C308.042725,524.045593 303.477783,522.815491 299.239532,521.351807 
	C294.704163,519.785461 290.528748,518.012451 286.496735,514.994019 
	C282.744324,512.184937 277.604309,510.697937 272.941681,508.941345 
	C258.941772,503.667145 244.301575,500.310669 230.564087,494.413757 
	C221.709229,490.612732 214.925659,483.343628 206.133102,479.329803 
	C203.868439,478.295990 201.775177,476.952301 199.247345,476.587158 
	C198.457031,476.473022 197.107864,476.305023 197.008392,475.910858 
	C195.081741,468.276062 187.173126,469.722107 182.505859,466.287201 
	C178.256180,463.159576 173.975967,459.959656 169.331390,457.507141 
	C160.831192,453.018677 155.205643,444.872375 146.846268,440.351501 
	C142.064270,437.765320 138.657303,433.718445 134.613052,430.345947 
	C130.793900,427.161224 126.978012,423.582275 121.874527,422.310089 
	C117.852615,421.307465 115.151863,418.070190 112.328468,415.643860 
	C110.028442,413.667236 107.500320,411.788940 105.320656,409.660675 
	C97.127731,401.660919 87.271759,395.645538 79.785156,386.667419 
	C75.216675,381.188751 69.196022,376.805237 64.796745,370.940918 
	C63.405457,369.086304 61.569122,367.515686 60.681519,365.336823 
	C56.709309,355.586121 51.123577,346.688263 46.058758,337.518829 
	C42.124050,330.395386 39.133144,322.884399 36.905968,315.106445 
	C35.879704,311.522400 33.676483,308.615204 32.257267,305.263763 
	C27.992441,295.192505 26.398560,284.422455 23.425747,274.045349 
	C21.272709,266.529846 21.447140,258.320923 20.830793,250.402008 
	C20.474348,245.822342 19.859713,241.250107 19.365770,236.710205 
	C18.189476,225.898743 20.176889,215.563522 22.344250,205.176315 
	C23.089342,201.605423 24.566832,198.137695 23.607740,194.395065 
	C23.052574,192.228653 24.252262,190.868149 25.682560,189.675720 
	C28.884567,187.006180 30.100727,183.370453 31.641283,179.613632 
	C36.166920,168.577301 42.259491,158.468201 50.593948,149.678375 
	C54.626747,145.425232 57.825592,140.246796 60.750412,135.115860 
	C63.613766,130.092728 67.391350,126.816383 72.700340,124.500656 
	C77.365921,122.465584 82.005203,119.733101 85.701660,116.285347 
	C89.719978,112.537392 94.710548,110.691078 99.005753,107.603973 
	C101.857231,105.554520 105.485146,106.331398 108.804306,104.900124 
	C116.924843,101.398438 123.794250,95.942352 131.538010,92.048927 
	C141.705139,86.937073 152.487778,83.173943 163.648621,80.539978 
	C169.535400,79.150688 175.538025,78.109512 180.666580,74.126160 
	C187.750427,68.624146 195.769394,70.470551 203.646149,72.443443 
	C214.269409,75.104256 224.964172,75.758423 235.735947,73.283630 
	C242.542755,71.719788 248.959579,74.245941 255.371231,75.632416 
	C262.799194,77.238663 270.594391,78.312042 277.110962,82.599960 
	C281.022125,85.173531 284.406708,88.572960 287.915344,91.726501 
	C292.647369,95.979622 296.883942,100.814690 302.303009,104.256157 
	C307.040466,107.264778 312.571014,108.693680 317.074768,112.384224 
	C320.577118,115.254173 324.774231,113.684601 328.164642,108.200195 
	C334.973846,97.185638 343.898468,89.111633 356.552032,85.545883 
	C357.149506,85.377510 357.985321,84.988976 358.148834,84.510971 
	C359.846558,79.547722 364.035461,77.040436 367.574860,73.623085 
	C372.175507,69.181137 377.053070,66.925903 382.992065,65.559875 
	C392.608978,63.347897 400.800629,56.706142 410.130432,54.718845 
	C420.977295,52.408413 431.026550,47.102291 442.771484,47.454906 
	C451.554291,47.718594 460.729492,47.524799 469.482574,45.354195 
	C472.794006,44.533012 475.732452,45.550911 479.293915,45.945511 
M344.432159,130.886429 
	C342.622681,132.165283 340.937408,133.721741 340.406189,135.848343 
	C338.348877,144.084442 332.878815,146.454437 325.087921,145.249405 
	C323.949646,145.073349 322.749634,145.141525 321.594604,145.258667 
	C318.455109,145.577042 316.274994,144.320160 314.409637,141.770554 
	C308.717163,133.990036 302.662201,126.723587 294.731262,120.799057 
	C285.468292,113.879494 277.392395,105.403702 269.323486,97.051254 
	C268.238617,95.928238 266.837769,95.600105 265.313873,95.287231 
	C259.794495,94.154068 254.226791,93.086670 249.240540,90.246452 
	C248.134323,89.616333 247.044800,89.734322 245.864532,89.844650 
	C235.929108,90.773430 226.152191,88.451019 216.264999,88.356194 
	C207.006454,88.267387 197.682236,85.071846 188.510483,89.300713 
	C183.854721,91.447365 178.944763,92.961052 173.961838,94.302025 
	C166.777573,96.235420 159.000687,97.422173 152.761063,101.104103 
	C140.173294,108.531998 126.722252,114.040382 113.527779,119.966309 
	C93.730156,128.857864 79.281891,143.185059 67.118164,160.458405 
	C65.892380,162.199097 65.564842,164.493866 63.618450,165.820801 
	C58.812164,169.097427 56.345459,173.894409 55.053776,179.404037 
	C54.355122,182.384109 53.087162,185.171463 51.064266,187.377335 
	C48.487217,190.187485 47.231483,193.411499 46.192612,197.003662 
	C44.317677,203.486710 43.762848,210.658539 41.048519,216.460251 
	C35.233326,228.889877 39.291237,240.369293 41.265316,252.314667 
	C42.151596,257.677643 42.848209,263.361755 41.991718,268.633881 
	C41.268406,273.086212 41.477291,277.037506 43.562565,280.601318 
	C46.501785,285.624573 50.178783,290.195770 48.541630,296.610138 
	C48.381134,297.238983 49.133606,298.107635 49.478596,298.857483 
	C50.983578,302.128693 52.759586,305.303314 53.956245,308.683289 
	C58.475777,321.448792 62.155090,334.595947 71.644554,344.936035 
	C72.069763,345.399353 72.149307,346.163788 72.459549,346.751129 
	C77.716148,356.703491 83.173340,366.568756 91.909630,373.974091 
	C100.638939,381.373413 108.220345,390.042328 117.455070,396.864960 
	C119.859741,398.641510 120.997116,402.160004 124.022476,402.792633 
	C129.182861,403.871704 132.350143,407.361359 135.585251,410.933350 
	C136.604248,412.058441 137.642960,413.111694 139.135803,413.586121 
	C143.983459,415.126678 147.934479,418.048096 151.709686,421.380096 
	C157.009140,426.057251 162.433090,430.603729 167.971146,434.995026 
	C170.152664,436.724884 173.385315,437.372345 175.113571,439.390900 
	C185.702682,451.758881 202.041321,454.512238 214.777939,463.359772 
	C220.986298,467.672394 228.014435,471.023468 234.236969,475.535522 
	C238.831665,478.867218 243.850235,481.678528 249.116562,483.521393 
	C257.965424,486.617889 267.136871,489.047089 275.876129,492.252319 
	C290.186615,497.500824 304.736816,502.785736 317.815369,510.688843 
	C328.078339,516.890564 339.508453,519.489868 350.283539,524.010864 
	C358.805847,527.586609 367.443695,530.900818 375.583160,535.283813 
	C384.612305,540.145935 394.225006,542.762390 404.353455,543.818665 
	C407.994232,544.198425 411.513916,544.872253 414.581299,547.267090 
	C416.938843,549.107788 419.745056,550.145203 422.884308,549.463928 
	C423.649658,546.801941 422.051666,545.264404 420.993958,543.398743 
	C415.958588,534.517395 409.154877,525.834412 414.325104,514.741211 
	C419.144531,504.400604 425.203918,498.460724 437.402771,501.794739 
	C442.037872,503.061554 446.523163,504.614166 450.514893,507.315887 
	C452.457581,501.620148 450.750946,496.167236 450.919342,490.765625 
	C451.166321,482.844269 453.184113,475.469940 455.236725,468.050873 
	C456.949188,461.861267 457.444214,455.455109 460.273224,449.382233 
	C462.222534,445.197754 465.677704,442.239899 467.305756,438.073761 
	C470.791473,429.153778 475.189087,420.821564 482.256622,414.142090 
	C485.013824,411.536224 487.833649,408.984406 490.432404,406.226562 
	C492.805145,403.708618 495.365692,401.455475 497.946411,399.170837 
	C501.289459,396.211334 505.497742,394.475525 508.468536,391.183044 
	C512.889587,386.283325 517.954651,382.505798 524.433899,380.795746 
	C529.055420,379.575958 533.960144,378.876648 538.176270,376.802277 
	C544.671936,373.606293 551.244080,371.516846 558.473694,371.556580 
	C563.140808,371.582214 566.853638,370.273529 568.613770,365.345551 
	C569.495605,362.876465 570.604980,360.246399 572.345764,358.370636 
	C578.091980,352.178864 585.922974,347.635620 587.540405,338.321167 
	C592.999390,335.353973 594.369812,329.385590 596.807373,324.534271 
	C600.362671,317.458252 605.224304,310.994476 606.109375,302.449249 
	C606.792725,295.852386 608.863647,289.071350 613.126892,283.519409 
	C619.963440,274.616180 624.748474,264.956177 625.156738,253.487946 
	C625.221375,251.672150 625.321960,249.715820 626.020874,248.088608 
	C629.282532,240.494766 627.156433,232.949524 625.872437,225.475861 
	C624.782227,219.130356 622.547363,212.945786 622.653076,206.435028 
	C622.792725,197.834366 621.002747,189.510788 618.370667,181.524826 
	C614.348755,169.322571 610.257568,157.046249 609.382751,144.301071 
	C608.415955,130.217117 601.259888,119.181602 592.716553,109.650009 
	C587.720825,104.076317 582.489746,98.664917 578.070190,92.566963 
	C571.565979,83.592636 562.591003,78.171722 552.167603,75.438713 
	C538.889771,71.957275 525.362671,69.691010 511.658478,68.276634 
	C494.687073,66.525047 477.992737,62.217876 460.657745,63.935513 
	C455.940216,64.402946 451.242554,65.309807 446.594879,65.525185 
	C438.275269,65.910736 430.461914,67.017433 423.531189,71.998528 
	C421.671753,73.334885 419.701538,75.064545 417.216400,74.546646 
	C413.762817,73.826942 410.926270,75.269028 408.226471,76.811798 
	C399.328674,81.896317 388.801666,83.930412 380.983826,90.932831 
	C374.735443,96.529526 366.762665,99.922081 361.564331,106.879181 
	C355.814545,114.574333 349.916779,122.148918 344.432159,130.886429 
M497.183350,621.264709 
	C504.566864,631.486389 514.258911,639.708679 519.194214,652.137451 
	C524.039124,664.338562 530.248718,676.198181 537.575500,687.361511 
	C539.519470,690.323486 541.642639,692.553101 544.445129,692.903809 
	C547.479431,693.283630 550.319763,691.257996 551.672302,687.985596 
	C555.018738,679.889404 561.796021,675.072021 569.044983,671.209717 
	C572.695068,669.264954 576.505249,667.133667 580.907532,666.550415 
	C590.378723,665.295532 599.227417,665.049805 608.400330,669.826965 
	C613.817322,672.648071 620.512573,674.078064 626.681946,675.951477 
	C632.272827,677.649231 637.851685,680.090149 642.643433,683.611694 
	C645.978394,686.062744 649.398438,687.546875 653.499329,688.045044 
	C655.828674,688.328003 656.859619,687.706421 657.579956,685.636353 
	C659.584595,679.875916 660.506104,673.944336 659.484436,667.952698 
	C658.571838,662.600769 659.083374,657.219116 658.254578,651.791870 
	C657.083069,644.121094 658.837585,636.091675 657.811523,628.178650 
	C657.175964,623.277771 655.818115,618.397766 656.763000,613.344971 
	C658.728821,602.833008 654.911682,593.808350 648.966614,585.583740 
	C645.057007,580.174866 644.480713,574.321899 645.282593,568.104980 
	C645.609192,565.572693 647.383850,564.720093 649.944641,564.626587 
	C654.093445,564.474976 657.466370,566.613525 661.472351,568.379211 
	C661.878723,561.402893 664.980896,556.420105 670.983521,553.924316 
	C673.966919,552.683899 676.660461,551.116150 679.093872,549.190674 
	C688.236816,541.956116 698.109131,535.202576 702.513062,523.748596 
	C706.702209,512.853516 709.366760,501.559570 707.609863,489.736572 
	C706.713806,483.707123 704.464783,478.102203 702.401428,472.355347 
	C699.821594,465.170166 698.670532,457.341705 695.626099,450.178650 
	C691.845947,441.284424 687.185974,432.848877 681.627441,424.936096 
	C673.943970,413.998169 661.448669,409.426727 651.073425,402.059296 
	C644.998230,397.745331 639.570862,392.064087 631.122925,392.314148 
	C629.523499,392.361511 627.937622,390.596191 626.236145,389.958832 
	C623.164917,388.808380 620.146240,386.834595 616.717041,387.741608 
	C613.776062,388.519531 611.122498,387.992188 608.417725,387.072723 
	C606.042542,386.265320 603.469971,386.431519 601.153137,385.949371 
	C595.677551,384.809845 590.729736,387.572510 585.447021,387.135925 
	C582.821228,386.918945 579.980225,385.442688 577.597290,386.754730 
	C572.491394,389.566071 566.973572,388.806274 561.605347,389.349762 
	C551.038879,390.419495 541.148499,393.931610 531.671448,398.365479 
	C521.120911,403.301666 513.210571,412.158234 503.612000,418.564850 
	C503.341370,418.745514 503.123993,419.019714 502.915344,419.277466 
	C499.511078,423.483185 496.016724,427.452057 493.266907,432.342773 
	C491.165924,436.079468 487.641357,439.364868 485.195892,443.456421 
	C480.029907,452.099823 476.033630,461.026886 473.424500,470.748596 
	C469.816406,484.192200 467.179169,496.891449 475.202271,510.353668 
	C480.296021,518.900574 487.076111,525.289307 494.357086,531.035522 
	C498.494995,534.301147 503.908417,536.827881 509.034546,539.147705 
	C514.531494,541.635315 519.314636,545.004089 522.566101,550.285095 
	C523.688232,552.107727 524.578369,553.778625 523.075378,555.751221 
	C521.152466,558.274902 511.226044,560.235229 508.208313,559.149475 
	C503.036072,557.288574 498.515869,554.211304 493.856903,551.510193 
	C485.793457,546.835449 477.514038,542.275146 471.981598,534.223022 
	C470.160278,531.572144 467.407318,529.763733 463.827362,530.382141 
	C461.586945,530.769226 459.445618,530.434143 457.535797,529.353760 
	C451.977844,526.209595 445.454956,525.816345 439.785461,522.840149 
	C436.358337,521.041138 432.375153,523.677734 433.339905,526.908081 
	C434.685699,531.414429 434.872223,536.794617 438.791351,540.000977 
	C444.295837,544.504395 447.227539,550.569336 450.404907,556.578369 
	C450.940643,557.591431 451.466919,558.945557 452.365295,559.377869 
	C459.600739,562.859375 461.707581,569.955261 464.837860,576.410461 
	C467.365204,581.622375 470.207855,586.685486 474.470306,590.769958 
	C483.572876,599.492676 491.658417,608.977722 497.183350,621.264709 
z"/>
<path fill="#ffffff" opacity="1.000000" stroke="none" 
	d="
M426.362915,410.086914 
	C426.291565,421.739227 425.849701,432.919312 426.304047,444.062866 
	C426.695587,453.665009 422.449280,459.626892 414.834625,465.074158 
	C393.096741,480.624786 369.171814,481.670990 344.179565,477.362152 
	C332.511414,475.350433 323.022095,468.695648 313.565338,462.243225 
	C308.193848,458.578247 306.022644,452.971069 305.778778,446.285614 
	C304.746368,417.981323 305.203827,389.660278 304.562134,361.355347 
	C303.516510,315.229340 302.779755,269.101685 302.510223,222.963348 
	C302.464905,215.206192 304.883423,208.919067 309.771698,203.423294 
	C312.369934,200.502182 313.398743,197.541611 312.371338,193.858139 
	C311.356537,190.219849 313.221436,188.418747 316.420197,187.774872 
	C323.792603,186.290833 331.297089,186.275925 338.777924,186.105530 
	C340.361328,186.069443 341.438232,187.177261 342.713470,187.979172 
	C345.243439,189.570053 348.381195,190.016174 350.498383,187.708710 
	C352.598938,185.419312 355.035675,184.999466 357.654266,184.940094 
	C363.480835,184.807983 369.313507,184.896896 375.143005,184.961121 
	C377.703217,184.989334 380.044861,185.458618 381.642456,187.901642 
	C383.758331,191.137253 388.435791,189.001465 391.061066,192.054047 
	C388.830139,194.252609 386.431061,193.661316 383.993439,193.275757 
	C372.358032,191.435379 360.809784,192.068771 349.356018,194.699387 
	C348.117188,194.983902 346.630890,194.993759 345.814362,197.321777 
	C350.695526,198.239334 355.455200,199.321274 360.272461,199.985504 
	C364.833221,200.614334 369.607971,199.113480 374.050476,201.344101 
	C374.547119,201.593475 375.466827,201.489746 375.960327,201.181519 
	C382.054596,197.375412 389.259888,198.513260 395.801117,196.683594 
	C399.518372,195.643814 403.214478,198.208603 407.142456,197.035217 
	C410.225769,196.114120 411.892487,195.169342 409.438263,192.018906 
	C408.585358,190.924011 407.799225,189.794189 408.726196,188.421356 
	C409.710297,186.963928 411.256439,187.057098 412.783966,187.179276 
	C419.017975,187.677887 420.331268,189.190796 419.399231,195.198669 
	C418.917450,198.304077 420.039856,200.830200 422.003448,202.968689 
	C428.150574,209.663269 429.671844,217.470459 429.493835,226.436264 
	C428.918488,255.415405 429.405029,284.417175 428.718445,313.392151 
	C428.044952,341.816254 427.160339,370.232269 427.029633,398.667450 
	C427.012909,402.299927 426.041870,405.917999 426.362915,410.086914 
M343.426453,237.101028 
	C345.856201,237.065262 348.014679,237.809402 349.877197,239.373734 
	C351.367126,240.625061 353.113586,241.209503 354.991913,240.872147 
	C360.878540,239.814865 366.773712,238.771561 372.605225,237.455460 
	C375.345795,236.836945 380.361694,228.501068 379.705139,225.732330 
	C378.758881,221.741852 374.986786,221.835678 372.035034,221.395660 
	C359.073547,219.463577 346.019958,218.434769 332.914703,218.158966 
	C330.901062,218.116577 328.932709,218.168060 328.326630,220.879593 
	C326.442383,229.309235 333.010406,240.727188 343.426453,237.101028 
M384.405457,336.710999 
	C383.823975,335.182190 383.500702,333.452148 381.517090,332.992523 
	C379.592804,333.415771 378.775757,334.973907 378.497192,336.579041 
	C377.677277,341.303680 376.829803,346.053802 376.541046,350.827118 
	C376.404633,353.081635 376.388672,356.435699 379.810394,356.603180 
	C383.355896,356.776703 384.540558,353.871155 384.749481,350.887512 
	C385.061523,346.431183 385.307617,341.948181 384.405457,336.710999 
z"/>
<path fill="#ffffff" opacity="1.000000" stroke="none" 
	d="
M543.872803,487.308838 
	C546.832703,483.108612 552.890381,480.577637 556.541565,482.192535 
	C560.908569,484.123993 562.657715,488.176514 563.090637,492.657776 
	C563.404724,495.908997 563.157654,499.214661 563.157043,502.496033 
	C563.156250,506.470673 564.417664,509.637268 568.469849,511.162292 
	C569.382507,511.505737 570.172302,512.185425 571.004150,512.732422 
	C577.805176,517.205139 582.418152,517.122742 588.583130,511.981903 
	C593.419312,507.949097 599.828735,506.479706 604.264465,501.650360 
	C606.310913,499.422241 614.841675,502.377472 616.790466,505.323181 
	C618.585571,508.036682 616.769592,512.358521 613.643860,515.258667 
	C609.208557,519.373840 603.616333,521.629883 598.937866,525.253540 
	C592.512573,530.230225 585.013000,530.327637 577.930481,528.852783 
	C567.857849,526.755188 558.377319,522.633484 550.317383,515.829590 
	C547.425110,513.388062 546.408142,510.748688 546.550598,506.749725 
	C546.735962,501.547272 544.087036,496.521729 544.061218,491.171814 
	C544.055664,490.016113 543.889587,488.861206 543.872803,487.308838 
z"/>
<path fill="#ffffff" opacity="1.000000" stroke="none" 
	d="
M610.496582,477.767120 
	C610.127258,470.300110 613.509094,464.886536 618.453979,460.382416 
	C622.639893,456.569519 628.699646,458.303467 629.747620,463.737549 
	C630.887268,469.647644 630.858826,475.595551 627.555908,481.123688 
	C625.520142,484.530975 623.153320,487.098053 618.853699,486.137115 
	C614.556824,485.176880 611.184875,483.010101 610.496582,477.767120 
z"/>
<path fill="#ffffff" opacity="1.000000" stroke="none" 
	d="
M552.762329,445.914124 
	C555.030151,441.512726 558.010925,438.644012 562.878052,440.211456 
	C567.507812,441.702362 569.602783,445.341431 569.403748,450.226898 
	C568.977112,460.697845 567.630615,463.798462 561.697815,465.441254 
	C554.744995,467.366547 550.183838,464.858704 549.639771,457.580505 
	C549.331726,453.459442 550.116699,449.639862 552.762329,445.914124 
z"/>
</svg>